# xmcd
#
# Track frame offsets:
#	150
#	14736
#	29458
#	44368
#	54252
#	70698
#	83222
#	90334
#	98107
#	104424
#	120974
#	131548
#
# Disc length: 1958 seconds
#
# Revision: 1
# Processed by: cddbd v1.5.1PL0 Copyright (c) Steve Scherf et al.
# Submitted via: audiograbber 1.83.01
#
DISCID=9107a40c
DTITLE=Willie Nelson - The Best of Willie Live
DYEAR=1900
DGENRE=Country
TTITLE0=Good Hearted Woman
TTITLE1=Blue Skies
TTITLE2=Georgia On My Mind
TTITLE3=On The Road Again
TTITLE4=Help Me Make It Through The Night
TTITLE5=City Of New Orleans
TTITLE6=To All The Girls I've Loved Before
TTITLE7=Luckenbach Texas
TTITLE8=Whisky River
TTITLE9=Always On My Mind
TTITLE10=All Of Me
TTITLE11=Stardust
EXTD=
EXTT0=
EXTT1=
EXTT2=
EXTT3=
EXTT4=
EXTT5=
EXTT6=
EXTT7=
EXTT8=
EXTT9=
EXTT10=
EXTT11=
PLAYORDER=
